<?xml version="1.0" encoding="utf-8"?>
<!-- Generator: Adobe Illustrator 16.0.0, SVG Export Plug-In . SVG Version: 6.00 Build 0)  -->
<!DOCTYPE svg PUBLIC "-//W3C//DTD SVG 1.1//EN" "http://www.w3.org/Graphics/SVG/1.1/DTD/svg11.dtd">
<svg version="1.1" id="레이어_1" xmlns="http://www.w3.org/2000/svg" xmlns:xlink="http://www.w3.org/1999/xlink" x="0px"
	 y="0px" width="133.732px" height="22.561px" viewBox="0 0 133.732 22.561" enable-background="new 0 0 133.732 22.561"
	 xml:space="preserve">
<g>
	<g>
		<path fill="#ffffff" d="M20.573,0.042v22.521h-3.527V10.684H3.698v11.878H0.171V0.042h3.527v7.556h13.348V0.042H20.573z"/>
		<path fill="#ffffff" d="M29.042,22.562c-1.646,0-2.951-0.461-3.91-1.382c-0.98-0.922-1.471-2.107-1.471-3.558v-1.206
			c0-1.47,0.489-2.665,1.471-3.586c0.959-0.941,2.264-1.411,3.91-1.411h9.201V11.33c0-1.804-0.99-2.705-2.97-2.705H25.042V5.627
			h10.174c2.115,0,3.732,0.539,4.85,1.617c1.138,1.039,1.706,2.548,1.706,4.526v5.968c0,1.529-0.52,2.734-1.558,3.616
			c-0.941,0.805-2.265,1.206-3.97,1.206L29.042,22.562L29.042,22.562z M35.479,14.418h-5.586c-1.803,0-2.705,0.764-2.705,2.293
			v0.559c0,1.509,0.902,2.265,2.705,2.265h5.586c1.842,0,2.765-0.756,2.765-2.265v-0.559C38.243,15.182,37.321,14.418,35.479,14.418
			z"/>
		<path fill="#ffffff" d="M52.091,5.627h3.469c2.195,0,3.92,0.637,5.174,1.911c1.255,1.272,1.884,3.048,1.884,5.32v9.702h-3.529
			v-9.525c0-1.41-0.273-2.439-0.822-3.088c-0.687-0.843-1.676-1.264-2.97-1.264h-2.999c-1.254,0-2.234,0.421-2.939,1.264
			c-0.51,0.647-0.766,1.678-0.766,3.088v9.525h-3.527V12.86c0-2.272,0.627-4.048,1.882-5.32C48.2,6.264,49.915,5.627,52.091,5.627z"
			/>
		<path fill="#ffffff" d="M78.874,20.297c-1.256,1.51-2.813,2.265-4.676,2.265h-2.177c-1.959,0-3.518-0.618-4.674-1.853
			c-1.098-1.156-1.646-2.793-1.646-4.91V5.627H69.2v10.201c0,1.234,0.266,2.137,0.795,2.705c0.606,0.646,1.399,0.971,2.381,0.971
			h1.528c0.999,0,1.804-0.323,2.41-0.971c0.549-0.568,0.823-1.471,0.823-2.705V5.627h3.47v10.201c0,1.234,0.265,2.137,0.793,2.705
			c0.607,0.646,1.402,0.971,2.383,0.971h1.527c1,0,1.803-0.323,2.411-0.971c0.549-0.568,0.823-1.471,0.823-2.705V5.627h3.498v10.172
			c0,2.117-0.568,3.754-1.705,4.91c-1.156,1.233-2.726,1.853-4.703,1.853h-2.146C81.667,22.562,80.128,21.807,78.874,20.297z"/>
		<path fill="#ffffff" d="M102.394,8.685c-1.254,0-2.233,0.421-2.939,1.264c-0.511,0.647-0.766,1.678-0.766,3.088v9.525h-3.526
			V-0.017h3.526v6.674c1.021-0.687,2.187-1.028,3.499-1.028h3.471c2.194,0,3.92,0.637,5.174,1.911
			c1.254,1.272,1.881,3.048,1.881,5.32v9.702h-3.527v-9.525c0-1.41-0.273-2.439-0.823-3.088c-0.687-0.843-1.676-1.264-2.97-1.264
			H102.394z"/>
		<path fill="#ffffff" d="M121.003,22.562c-1.646,0-2.949-0.461-3.91-1.382c-0.98-0.922-1.471-2.107-1.471-3.558v-1.206
			c0-1.47,0.489-2.665,1.471-3.586c0.961-0.941,2.264-1.411,3.91-1.411h9.203V11.33c0-1.804-0.99-2.705-2.972-2.705h-10.229V5.627
			h10.172c2.117,0,3.734,0.539,4.852,1.617c1.138,1.039,1.705,2.548,1.705,4.526v5.968c0,1.529-0.52,2.734-1.559,3.616
			c-0.941,0.805-2.264,1.206-3.969,1.206L121.003,22.562L121.003,22.562z M127.442,14.418h-5.586c-1.805,0-2.705,0.764-2.705,2.293
			v0.559c0,1.509,0.9,2.265,2.705,2.265h5.586c1.843,0,2.765-0.756,2.765-2.265v-0.559
			C130.206,15.182,129.284,14.418,127.442,14.418z"/>
	</g>
</g>
</svg>
