<svg id="Layer_1" data-name="Layer 1" xmlns="http://www.w3.org/2000/svg" viewBox="0 0 74 36"><defs><style>.cls-1{fill:#ff6d12;}.cls-2{fill:#793000;}.cls-3{fill:#fff;}</style></defs><title>대지 1</title><path class="cls-1" d="M10.84,12V24H9V17.69H1.87V24H0V12H1.87v4H9V12Z"/><path class="cls-1" d="M15.34,24a2.86,2.86,0,0,1-2.08-.74,2.47,2.47,0,0,1-.78-1.89v-.64a2.49,2.49,0,0,1,.78-1.9,2.83,2.83,0,0,1,2.08-.75h4.89v0q0-1.44-1.58-1.44H13.21V15h5.4a3.57,3.57,0,0,1,2.58.86,3.1,3.1,0,0,1,.91,2.41v3.17a2.39,2.39,0,0,1-.83,1.92,3.16,3.16,0,0,1-2.11.64Zm3.42-4.33h-3q-1.44,0-1.44,1.22v.3c0,.8.48,1.2,1.44,1.2h3q1.47,0,1.47-1.2v-.3Q20.23,19.67,18.76,19.67Z"/><path class="cls-1" d="M27.58,15h1.84a3.69,3.69,0,0,1,2.75,1,3.85,3.85,0,0,1,1,2.83V24H31.3V18.94a2.52,2.52,0,0,0-.44-1.64,1.92,1.92,0,0,0-1.58-.67H27.69a1.93,1.93,0,0,0-1.56.67,2.66,2.66,0,0,0-.41,1.64V24H23.85V18.84a3.85,3.85,0,0,1,1-2.83A3.67,3.67,0,0,1,27.58,15Z"/><path class="cls-1" d="M41.81,22.8A3.1,3.1,0,0,1,39.33,24H38.17a3.24,3.24,0,0,1-2.48-1,3.64,3.64,0,0,1-.87-2.6V15h1.86v5.42a2.07,2.07,0,0,0,.42,1.44,1.66,1.66,0,0,0,1.27.52h.81a1.68,1.68,0,0,0,1.28-.52,2,2,0,0,0,.44-1.44V15h1.84v5.42a2.07,2.07,0,0,0,.42,1.44,1.67,1.67,0,0,0,1.27.52h.81a1.68,1.68,0,0,0,1.28-.52A2,2,0,0,0,47,20.42V15h1.86v5.41A3.55,3.55,0,0,1,47.9,23a3.26,3.26,0,0,1-2.5,1H44.26A3.07,3.07,0,0,1,41.81,22.8Z"/><path class="cls-1" d="M54.31,16.63a1.93,1.93,0,0,0-1.56.67,2.66,2.66,0,0,0-.41,1.64V24H50.47V12h1.87v3.55A3.25,3.25,0,0,1,54.2,15H56a3.68,3.68,0,0,1,2.75,1,3.85,3.85,0,0,1,1,2.83V24H57.91V18.94a2.54,2.54,0,0,0-.43-1.64,1.93,1.93,0,0,0-1.58-.67H54.31Z"/><path class="cls-1" d="M64.19,24a2.87,2.87,0,0,1-2.08-.74,2.47,2.47,0,0,1-.78-1.89v-.64a2.49,2.49,0,0,1,.78-1.9,2.83,2.83,0,0,1,2.08-.75h4.89v0q0-1.44-1.58-1.44H62.07V15h5.4a3.57,3.57,0,0,1,2.58.86,3.09,3.09,0,0,1,.9,2.41v3.17a2.39,2.39,0,0,1-.83,1.92A3.15,3.15,0,0,1,68,24Zm3.42-4.33h-3q-1.44,0-1.44,1.22v.3q0,1.2,1.44,1.2h3c1,0,1.47-.4,1.47-1.2v-.3C69.08,20.08,68.59,19.67,67.61,19.67Z"/><path class="cls-2" d="M10.84,24V36H9V29.69H1.87V36H0V24H1.87v4H9V24Z"/><path class="cls-2" d="M15.34,36a2.86,2.86,0,0,1-2.08-.74,2.47,2.47,0,0,1-.78-1.89v-.64a2.49,2.49,0,0,1,.78-1.9,2.83,2.83,0,0,1,2.08-.75h4.89v0q0-1.44-1.58-1.44H13.21V27h5.4a3.57,3.57,0,0,1,2.58.86,3.1,3.1,0,0,1,.91,2.41v3.17a2.39,2.39,0,0,1-.83,1.92,3.16,3.16,0,0,1-2.11.64Zm3.42-4.33h-3q-1.44,0-1.44,1.22v.3c0,.8.48,1.2,1.44,1.2h3q1.47,0,1.47-1.2v-.3Q20.23,31.67,18.76,31.67Z"/><path class="cls-2" d="M27.58,27h1.84a3.69,3.69,0,0,1,2.75,1,3.85,3.85,0,0,1,1,2.82V36H31.3V30.94a2.52,2.52,0,0,0-.44-1.64,1.92,1.92,0,0,0-1.58-.67H27.69a1.93,1.93,0,0,0-1.56.67,2.66,2.66,0,0,0-.41,1.64V36H23.85V30.84a3.85,3.85,0,0,1,1-2.83A3.67,3.67,0,0,1,27.58,27Z"/><path class="cls-2" d="M41.81,34.79A3.1,3.1,0,0,1,39.33,36H38.17a3.24,3.24,0,0,1-2.48-1,3.64,3.64,0,0,1-.87-2.6V27h1.86v5.42a2.07,2.07,0,0,0,.42,1.44,1.66,1.66,0,0,0,1.27.52h.81a1.68,1.68,0,0,0,1.28-.52,2,2,0,0,0,.44-1.44V27h1.84v5.42a2.07,2.07,0,0,0,.42,1.44,1.67,1.67,0,0,0,1.27.52h.81a1.68,1.68,0,0,0,1.28-.52A2,2,0,0,0,47,32.42V27h1.86v5.41A3.55,3.55,0,0,1,47.9,35a3.25,3.25,0,0,1-2.49,1H44.27A3.06,3.06,0,0,1,41.81,34.79Z"/><path class="cls-2" d="M54.31,28.62a1.93,1.93,0,0,0-1.56.67,2.66,2.66,0,0,0-.41,1.64V36H50.47V24h1.87v3.55A3.25,3.25,0,0,1,54.2,27H56a3.68,3.68,0,0,1,2.75,1,3.85,3.85,0,0,1,1,2.82V36H57.91V30.94a2.54,2.54,0,0,0-.43-1.64,1.93,1.93,0,0,0-1.58-.67Z"/><path class="cls-2" d="M64.19,36a2.87,2.87,0,0,1-2.08-.74,2.47,2.47,0,0,1-.78-1.89v-.64a2.49,2.49,0,0,1,.78-1.9,2.83,2.83,0,0,1,2.08-.75h4.89v0q0-1.44-1.58-1.44H62.07V27h5.4a3.57,3.57,0,0,1,2.58.86,3.09,3.09,0,0,1,.9,2.41v3.17a2.39,2.39,0,0,1-.83,1.92A3.15,3.15,0,0,1,68,36Zm3.42-4.33h-3q-1.44,0-1.44,1.22v.3q0,1.2,1.44,1.2h3c1,0,1.47-.4,1.47-1.2v-.3C69.08,32.08,68.59,31.67,67.61,31.67Z"/><path class="cls-3" d="M10.84,0V12H9V5.69H1.87V12H0V0H1.87V4H9V0Z"/><path class="cls-3" d="M15.34,12a2.86,2.86,0,0,1-2.08-.74,2.47,2.47,0,0,1-.78-1.89V8.73a2.49,2.49,0,0,1,.78-1.9,2.83,2.83,0,0,1,2.08-.75h4.89V6q0-1.44-1.58-1.44H13.21V3h5.4a3.57,3.57,0,0,1,2.58.86,3.1,3.1,0,0,1,.91,2.41V9.43a2.39,2.39,0,0,1-.83,1.92,3.16,3.16,0,0,1-2.11.64Zm3.42-4.33h-3q-1.44,0-1.44,1.22v.3c0,.8.48,1.2,1.44,1.2h3q1.47,0,1.47-1.2v-.3Q20.23,7.67,18.76,7.67Z"/><path class="cls-3" d="M27.58,3h1.84a3.69,3.69,0,0,1,2.75,1,3.85,3.85,0,0,1,1,2.82V12H31.3V6.94a2.52,2.52,0,0,0-.44-1.64,1.92,1.92,0,0,0-1.58-.67H27.69a1.93,1.93,0,0,0-1.56.67,2.66,2.66,0,0,0-.41,1.64V12H23.85V6.84a3.85,3.85,0,0,1,1-2.83A3.67,3.67,0,0,1,27.58,3Z"/><path class="cls-3" d="M41.81,10.79A3.1,3.1,0,0,1,39.33,12H38.17a3.24,3.24,0,0,1-2.48-1,3.64,3.64,0,0,1-.87-2.6V3h1.86V8.42a2.07,2.07,0,0,0,.42,1.44,1.66,1.66,0,0,0,1.27.52h.81a1.68,1.68,0,0,0,1.28-.52,2,2,0,0,0,.44-1.44V3h1.84V8.42a2.07,2.07,0,0,0,.42,1.44,1.67,1.67,0,0,0,1.27.52h.81a1.68,1.68,0,0,0,1.28-.52A2,2,0,0,0,47,8.42V3h1.86V8.41A3.55,3.55,0,0,1,47.9,11a3.25,3.25,0,0,1-2.49,1H44.27A3.06,3.06,0,0,1,41.81,10.79Z"/><path class="cls-3" d="M54.31,4.62a1.93,1.93,0,0,0-1.56.67,2.66,2.66,0,0,0-.41,1.64V12H50.47V0h1.87V3.55A3.25,3.25,0,0,1,54.2,3H56a3.68,3.68,0,0,1,2.75,1,3.85,3.85,0,0,1,1,2.82V12H57.91V6.94a2.54,2.54,0,0,0-.43-1.64,1.93,1.93,0,0,0-1.58-.67Z"/><path class="cls-3" d="M64.19,12a2.87,2.87,0,0,1-2.08-.74,2.47,2.47,0,0,1-.78-1.89V8.73a2.49,2.49,0,0,1,.78-1.9,2.83,2.83,0,0,1,2.08-.75h4.89V6q0-1.44-1.58-1.44H62.07V3h5.4A3.57,3.57,0,0,1,70,3.86,3.09,3.09,0,0,1,71,6.26V9.43a2.39,2.39,0,0,1-.83,1.92A3.15,3.15,0,0,1,68,12Zm3.42-4.33h-3q-1.44,0-1.44,1.22v.3q0,1.2,1.44,1.2h3c1,0,1.47-.4,1.47-1.2v-.3C69.08,8.08,68.59,7.67,67.61,7.67Z"/></svg>