<?xml version="1.0" encoding="utf-8"?>
<!-- Generator: Adobe Illustrator 15.1.0, SVG Export Plug-In . SVG Version: 6.00 Build 0)  -->
<!DOCTYPE svg PUBLIC "-//W3C//DTD SVG 1.1//EN" "http://www.w3.org/Graphics/SVG/1.1/DTD/svg11.dtd">
<svg version="1.1" id="레이어_1" xmlns="http://www.w3.org/2000/svg" xmlns:xlink="http://www.w3.org/1999/xlink" x="0px"
	 y="0px" width="65px" height="22px" viewBox="0 0 65 22" enable-background="new 0 0 65 22" xml:space="preserve">
<g>
	<g>
		<path fill="#818F9C" d="M9.943,0.028v10.957H8.228V5.207H1.733v5.778H0.018V0.028h1.716v3.677h6.494V0.028H9.943z"/>
		<path fill="#818F9C" d="M14.064,10.985c-0.801,0-1.436-0.225-1.902-0.672c-0.478-0.449-0.715-1.027-0.715-1.73V7.995
			c0-0.715,0.237-1.295,0.715-1.743c0.467-0.458,1.102-0.687,1.902-0.687h4.477V5.521c0-0.877-0.482-1.314-1.444-1.314h-4.979V2.747
			h4.95c1.029,0,1.816,0.263,2.359,0.787c0.554,0.505,0.83,1.238,0.83,2.203v2.903c0,0.744-0.251,1.331-0.757,1.759
			c-0.459,0.392-1.103,0.586-1.932,0.586H14.064L14.064,10.985z M17.195,7.022h-2.719c-0.876,0-1.316,0.372-1.316,1.116v0.272
			c0,0.732,0.439,1.102,1.316,1.102h2.719c0.896,0,1.344-0.368,1.344-1.102V8.139C18.541,7.395,18.092,7.022,17.195,7.022z"/>
		<path fill="#818F9C" d="M25.277,2.747h1.688c1.065,0,1.907,0.31,2.518,0.93c0.608,0.62,0.916,1.482,0.916,2.588v4.721h-1.717
			V6.352c0-0.686-0.134-1.187-0.399-1.502c-0.334-0.409-0.815-0.614-1.445-0.614h-1.459c-0.609,0-1.088,0.205-1.432,0.614
			c-0.246,0.315-0.371,0.816-0.371,1.502v4.634h-1.717V6.265c0-1.105,0.305-1.969,0.916-2.588
			C23.384,3.056,24.22,2.747,25.277,2.747z"/>
		<path fill="#818F9C" d="M38.308,9.884c-0.61,0.734-1.368,1.102-2.274,1.102h-1.059c-0.953,0-1.711-0.301-2.273-0.9
			C32.166,9.522,31.9,8.727,31.9,7.696V2.747h1.701V7.71c0,0.601,0.129,1.039,0.389,1.316c0.293,0.313,0.68,0.471,1.158,0.471h0.743
			c0.483,0,0.876-0.156,1.172-0.471c0.267-0.277,0.399-0.717,0.399-1.316V2.747h1.688V7.71c0,0.601,0.13,1.039,0.388,1.316
			c0.295,0.313,0.682,0.471,1.158,0.471h0.742c0.488,0,0.878-0.156,1.176-0.471c0.266-0.277,0.399-0.717,0.399-1.316V2.747h1.701
			v4.949c0,1.029-0.276,1.826-0.83,2.389c-0.562,0.601-1.325,0.9-2.287,0.9h-1.044C39.668,10.985,38.918,10.618,38.308,9.884z"/>
		<path fill="#818F9C" d="M49.752,4.233c-0.609,0-1.086,0.205-1.43,0.615c-0.248,0.315-0.373,0.816-0.373,1.502v4.635h-1.717V0
			h1.717v3.247c0.496-0.333,1.063-0.5,1.703-0.5h1.688c1.065,0,1.905,0.31,2.517,0.93c0.609,0.619,0.915,1.482,0.915,2.588v4.721
			h-1.717V6.352c0-0.686-0.134-1.187-0.399-1.502c-0.334-0.411-0.815-0.614-1.445-0.614h-1.459V4.233z"/>
		<path fill="#818F9C" d="M58.807,10.985c-0.803,0-1.438-0.225-1.904-0.672c-0.476-0.449-0.715-1.027-0.715-1.73V7.995
			c0-0.715,0.239-1.295,0.715-1.743c0.469-0.458,1.102-0.687,1.904-0.687h4.479V5.521c0-0.877-0.483-1.314-1.447-1.314h-4.977V2.747
			h4.948c1.03,0,1.817,0.263,2.36,0.787C64.724,4.039,65,4.772,65,5.737v2.903c0,0.744-0.254,1.331-0.76,1.759
			c-0.457,0.392-1.102,0.586-1.931,0.586H58.807L58.807,10.985L58.807,10.985z M61.938,7.022h-2.717
			c-0.88,0-1.317,0.372-1.317,1.116v0.272c0,0.732,0.438,1.102,1.317,1.102h2.717c0.896,0,1.347-0.368,1.347-1.102V8.139
			C63.285,7.395,62.836,7.022,61.938,7.022z"/>
	</g>
</g>
<g>
	<g>
		<path fill="#FFFFFF" d="M9.943,11.044v10.957H8.228v-5.779H1.733v5.779H0.018V11.044h1.716v3.676h6.494v-3.676H9.943z"/>
		<path fill="#FFFFFF" d="M14.064,22c-0.801,0-1.436-0.226-1.902-0.673c-0.478-0.448-0.715-1.026-0.715-1.73V19.01
			c0-0.715,0.237-1.297,0.715-1.744c0.467-0.459,1.102-0.687,1.902-0.687h4.477v-0.045c0-0.877-0.482-1.314-1.444-1.314h-4.979
			v-1.459h4.95c1.029,0,1.816,0.264,2.359,0.786c0.554,0.506,0.83,1.239,0.83,2.203v2.903c0,0.744-0.251,1.33-0.757,1.758
			c-0.459,0.393-1.103,0.587-1.932,0.587h-3.504V22z M17.195,18.038h-2.719c-0.876,0-1.316,0.371-1.316,1.115v0.272
			c0,0.731,0.439,1.103,1.316,1.103h2.719c0.896,0,1.344-0.369,1.344-1.103v-0.272C18.541,18.409,18.092,18.038,17.195,18.038z"/>
		<path fill="#FFFFFF" d="M25.277,13.761h1.688c1.065,0,1.907,0.311,2.518,0.93c0.608,0.62,0.916,1.483,0.916,2.588v4.721h-1.717
			v-4.633c0-0.687-0.134-1.188-0.399-1.502c-0.334-0.41-0.815-0.615-1.445-0.615h-1.459c-0.609,0-1.088,0.205-1.432,0.615
			c-0.246,0.313-0.371,0.815-0.371,1.502v4.633h-1.717V17.28c0-1.105,0.305-1.97,0.916-2.588
			C23.384,14.071,24.22,13.761,25.277,13.761z"/>
		<path fill="#FFFFFF" d="M38.308,20.899c-0.61,0.733-1.368,1.102-2.274,1.102h-1.059c-0.953,0-1.711-0.301-2.273-0.901
			c-0.535-0.563-0.801-1.358-0.801-2.389v-4.949h1.701v4.964c0,0.6,0.129,1.039,0.389,1.316c0.293,0.313,0.68,0.471,1.158,0.471
			h0.743c0.483,0,0.876-0.156,1.172-0.471c0.267-0.277,0.399-0.717,0.399-1.316v-4.964h1.688v4.964c0,0.6,0.13,1.039,0.388,1.316
			c0.295,0.313,0.682,0.471,1.158,0.471h0.742c0.488,0,0.878-0.156,1.176-0.471c0.266-0.277,0.399-0.717,0.399-1.316v-4.964h1.701
			v4.949c0,1.03-0.276,1.825-0.83,2.389c-0.562,0.601-1.325,0.901-2.287,0.901h-1.044C39.668,22,38.918,21.633,38.308,20.899z"/>
		<path fill="#FFFFFF" d="M49.752,15.248c-0.609,0-1.086,0.204-1.43,0.614c-0.248,0.314-0.373,0.816-0.373,1.502V22h-1.717V11.015
			h1.717v3.247c0.496-0.334,1.063-0.5,1.703-0.5h1.688c1.065,0,1.905,0.31,2.517,0.931c0.609,0.618,0.915,1.481,0.915,2.588v4.721
			h-1.717v-4.635c0-0.687-0.134-1.188-0.399-1.502c-0.334-0.41-0.815-0.615-1.445-0.615L49.752,15.248L49.752,15.248z"/>
		<path fill="#FFFFFF" d="M58.807,22c-0.803,0-1.438-0.226-1.904-0.673c-0.476-0.448-0.715-1.026-0.715-1.73V19.01
			c0-0.715,0.239-1.297,0.715-1.744c0.469-0.459,1.102-0.687,1.904-0.687h4.479v-0.045c0-0.877-0.483-1.314-1.447-1.314h-4.977
			v-1.459h4.948c1.03,0,1.817,0.264,2.36,0.786C64.724,15.053,65,15.786,65,16.75v2.903c0,0.744-0.254,1.33-0.76,1.758
			c-0.457,0.393-1.102,0.587-1.931,0.587h-3.504L58.807,22L58.807,22z M61.938,18.038h-2.717c-0.88,0-1.317,0.371-1.317,1.115v0.272
			c0,0.731,0.438,1.103,1.317,1.103h2.717c0.896,0,1.347-0.369,1.347-1.103v-0.272C63.285,18.409,62.836,18.038,61.938,18.038z"/>
	</g>
</g>
</svg>
